<svg width="180" height="180" viewBox="0 0 180 180" fill="none" xmlns="http://www.w3.org/2000/svg">
  <rect width="180" height="180" rx="36" fill="#0F172A"/>
  <circle cx="90" cy="90" r="68" stroke="url(#grad1)" stroke-width="12" stroke-linecap="round" stroke-dasharray="420" stroke-dashoffset="80"/>
  <path d="M101 27C102.8 27 104.5 27.8 105.4 29.4L142.4 91.9C143.7 94.2 143.3 97.1 141.2 98.9L106.7 125.9C105.8 126.6 104.6 127 103.5 127H76.5C74.6 127 73 125.4 73 123.5V56.5C73 54.6 74.6 53 76.5 53H101V27Z" fill="url(#grad2)"/>
  <path d="M84 96L103 69L101 87H132L84 138L97 105H76L84 96Z" fill="#ffffff" fill-opacity="0.95"/>
  <rect x="135" y="27" width="12" height="12" rx="3" fill="#2B6CB0"/>
  <rect x="150" y="45" width="9" height="9" rx="2.25" fill="#3B82F6"/>
  <defs>
    <linearGradient id="grad1" x1="22" y1="22" x2="158" y2="158" gradientUnits="userSpaceOnUse">
      <stop stop-color="#1D4ED8"/>
      <stop offset="1" stop-color="#7C3AED"/>
    </linearGradient>
    <linearGradient id="grad2" x1="73" y1="27" x2="142" y2="127" gradientUnits="userSpaceOnUse">
      <stop stop-color="#3B82F6"/>
      <stop offset="1" stop-color="#6366F1"/>
    </linearGradient>
  </defs>
</svg>