<svg width="16" height="16" viewBox="0 0 16 16" fill="none" xmlns="http://www.w3.org/2000/svg">
  <rect width="16" height="16" rx="3" fill="#0F172A"/>
  <path d="M9 2.5C9.2 2.5 9.35 2.6 9.45 2.8L12.95 8.3C13.1 8.55 13.05 8.85 12.8 9L9.8 11.3C9.65 11.4 9.5 11.5 9.3 11.5H6.7C6.3 11.5 6 11.2 6 10.8V5.2C6 4.8 6.3 4.5 6.7 4.5H9V2.5Z" fill="url(#grad1)"/>
  <path d="M7.5 8.5L9 6L8.75 7.75H10.5L7.5 11.5L8.5 9.5H6.5L7.5 8.5Z" fill="white" fill-opacity="0.95"/>
  <defs>
    <linearGradient id="grad1" x1="6" y1="2.5" x2="12.5" y2="11.5" gradientUnits="userSpaceOnUse">
      <stop stop-color="#3B82F6"/>
      <stop offset="1" stop-color="#6366F1"/>
    </linearGradient>
  </defs>
</svg>