<svg width="120" height="120" viewBox="0 0 120 120" fill="none" xmlns="http://www.w3.org/2000/svg">
  <rect width="120" height="120" rx="24" fill="#0F172A"/>
  <circle cx="60" cy="60" r="34" stroke="url(#grad1)" stroke-width="8" stroke-linecap="round" stroke-dasharray="210" stroke-dashoffset="40"/>
  <path d="M67 24C68 24 69 24.4 69.6 25.2L94.6 61.2C95.4 62.4 95.2 64 94.1 64.9L71.1 83.9C70.5 84.4 69.8 84.7 69 84.7H51C49.9 84.7 49 83.8 49 82.7V37.3C49 36.2 49.9 35.3 51 35.3H67V24Z" fill="url(#grad2)"/>
  <path d="M56 64L65 46L64 58H74L56 84L61 70H51L56 64Z" fill="#fff" fill-opacity="0.95"/>
  <rect x="90" y="18" width="8" height="8" rx="2" fill="#2B6CB0"/>
  <rect x="100" y="30" width="6" height="6" rx="1.5" fill="#3B82F6"/>
  <defs>
    <linearGradient id="grad1" x1="26" y1="26" x2="94" y2="94" gradientUnits="userSpaceOnUse">
      <stop stop-color="#1D4ED8"/>
      <stop offset="1" stop-color="#7C3AED"/>
    </linearGradient>
    <linearGradient id="grad2" x1="49" y1="24" x2="94" y2="84" gradientUnits="userSpaceOnUse">
      <stop stop-color="#3B82F6"/>
      <stop offset="1" stop-color="#6366F1"/>
    </linearGradient>
  </defs>
</svg>
